<svg viewBox="0 0 60 65">
<path d="M6.987 57.406h38.619l-1.845-5.972C44.035 51.672 59.583 65 59.583 65V6.703C59.4 3.08 56.28 0 52.412 0L7 .008C3.136.008 0 3.093 0 6.717V50.7c0 3.822 3.13 6.706 6.987 6.706Zm28.568-42.014-.09.032.033-.032h.057Zm-20.667 3.436c4.964-3.613 9.565-3.44 9.565-3.44l.372.366c-6.075 1.45-8.83 4.163-8.83 4.163.282-.06 12.548-7.136 27.412.179 0 0-2.76-2.538-8.461-4.163l.503-.495c.788.002 4.96.148 9.423 3.412 0 0 4.994 8.531 4.994 19.012-.165-.2-3.099 4.513-10.647 4.675 0 0-1.278-1.446-2.188-2.708 4.415-1.268 6.067-3.803 6.067-3.803-8.594 5.411-16.126 4.566-25.136.91-.084 0-.122-.038-.165-.081v-.016c-.044-.04-.082-.081-.166-.081h-.162c-.553-.363-.921-.542-.921-.542s1.65 2.535 5.888 3.802c-1.113 1.27-2.216 2.714-2.216 2.714-7.545-.179-10.297-4.891-10.297-4.891 0-10.498 4.965-19.013 4.965-19.013Z" fill="currentColor"></path><path d="M36.042 34.588c1.926 0 3.494-1.625 3.494-3.63 0-1.99-1.56-3.615-3.494-3.615v.008c-1.917 0-3.488 1.62-3.493 3.624 0 1.988 1.568 3.613 3.493 3.613ZM23.535 34.588c1.926 0 3.494-1.625 3.494-3.63 0-1.99-1.557-3.615-3.483-3.615l-.01.008c-1.926 0-3.494 1.62-3.494 3.624 0 1.988 1.568 3.613 3.493 3.613Z" fill="currentColor"></path>
</svg>
